<svg width="550" height="36.18688" xmlns="http://www.w3.org/2000/svg">
 <g>
  <title>background</title>
  <rect fill="none" id="canvas_background" height="38.18688" width="211.52801" y="-1" x="-1"/>
 </g>

 <g>
  <title>Layer 1</title>
  <text xml:space="preserve" text-anchor="start" font-family="sans-serif" font-size="24" id="svg_116" y="26.2221" x="41.55603" stroke-opacity="null" stroke-width="0" stroke="#000" fill="#000000">About me</text>
  <path transform="rotate(15 21.0867 18.0934)" stroke="null" fill="#000000" stroke-width="1.5" stroke-dasharray="2,2" d="m21.08675,0.28802c-11.23166,0 -20.33674,7.97178 -20.33674,17.80542c0,9.83386 9.10508,17.80542 20.33674,17.80542c11.2319,0 20.33674,-7.97157 20.33674,-17.80542c0,-9.83363 -9.10484,-17.80542 -20.33674,-17.80542zm-1.73931,8.00474l3.38626,0l0,3.15357l-3.38626,0l0,-3.15357zm5.60408,19.13848l-3.72467,0c-1.44705,0 -2.0641,-0.53906 -2.0641,-1.83289l0,-8.41013c0,-0.40425 -0.24607,-0.59304 -0.6771,-0.59304l-1.2314,0l0,-2.91196l3.72493,0c1.44813,0 2.0625,0.56594 2.0625,1.83265l0,8.43724c0,0.37856 0.24607,0.59306 0.6771,0.59306l1.23141,0l0,2.88509l0.00133,0l0,0l0,-0.00001z" id="svg_1"/>
 </g>
</svg>