<svg width="550" height="36.18688" xmlns="http://www.w3.org/2000/svg">
 <g>
  <title>background</title>
  <rect fill="none" id="canvas_background" height="38.18688" width="211.52801" y="-1" x="-1"/>
 </g>

 <g>
  <title>Layer 1</title>
  <text xml:space="preserve" opacity="0.5" text-anchor="start" font-family="sans-serif" font-size="24" id="svg_116" y="26.2221" x="41.55603" fill-opacity="null" stroke-opacity="null" stroke-width="0" stroke="#000" fill="#000000">About me</text>
  <path fill="#56aaff" stroke-width="1.5" stroke-dasharray="2,2" d="m15.84868,4.57371c-8.33876,0 -15.09868,6.05301 -15.09868,13.51973c0,7.46689 6.75992,13.51973 15.09868,13.51973c8.33894,0 15.09868,-6.05285 15.09868,-13.51973c0,-7.46672 -6.75974,-13.51973 -15.09868,-13.51973zm-1.29132,6.07803l2.51407,0l0,2.39452l-2.51407,0l0,-2.39452zm4.16066,14.53193l-2.76532,0c-1.07434,0 -1.53246,-0.40931 -1.53246,-1.39172l0,-6.38585c0,-0.30695 -0.18269,-0.4503 -0.5027,-0.4503l-0.91423,0l0,-2.21106l2.76551,0c1.07514,0 1.53127,0.42972 1.53127,1.39154l0,6.40643c0,0.28744 0.18269,0.45031 0.5027,0.45031l0.91424,0l0,2.19066l0.00099,0l0,0l0,-0.00001z" id="svg_1"/>
 </g>
</svg>