<svg width="550" height="36.18688" xmlns="http://www.w3.org/2000/svg">
 <g>
  <title>background</title>
  <rect x="-1" y="-1" width="211.52801" height="38.18688" id="canvas_background" fill="none"/>
 </g>

 <g>
  <title>Layer 1</title>
  <text fill="#000000" stroke="#000" stroke-width="0" stroke-opacity="null" fill-opacity="null" x="41.55603" y="26.2221" id="svg_116" font-size="24" font-family="sans-serif" text-anchor="start" opacity="0.5" xml:space="preserve">Skills and Education</text>
  <path stroke="null" id="svg_1" d="m31.41133,15.75898c1.59558,-1.71061 1.9163,-4.04501 1.04831,-6.00822l-3.20326,3.4832l-3.15763,-0.57246l-1.04628,-2.8363l3.19516,-3.47511c-2.19782,-0.5156 -4.61914,0.10687 -6.20769,1.81071c-1.67533,1.79627 -1.94949,4.28375 -0.91255,6.30192l-8.34959,8.95329c-0.88844,0.95189 -0.7802,2.39562 0.24063,3.22374c1.02083,0.82754 2.56881,0.72752 3.45694,-0.22438l8.3398,-8.94446c2.2957,0.68998 4.91309,0.09251 6.59616,-1.71193l0,0z" stroke-dasharray="2,2" stroke-width="1.5" fill="#56aaff"/>
 </g>
</svg>