<svg width="550" height="36.18688" xmlns="http://www.w3.org/2000/svg">
 <g>
  <title>background</title>
  <rect x="-1" y="-1" width="211.52801" height="38.18688" id="canvas_background" fill="none"/>
 </g>

 <g>
  <title>Layer 1</title>
  <text fill="#000000" stroke="#000" stroke-width="0" stroke-opacity="null" fill-opacity="null" x="41.55603" y="26.2221" id="svg_116" font-size="24" font-family="sans-serif" text-anchor="start" xml:space="preserve">Skills and Education</text>
  <path transform="rotate(15 24.8177 20.8382)" stroke="null" id="svg_1" d="m36.45927,19.60762c2.09703,-2.26766 2.51855,-5.36224 1.37776,-7.96475l-4.20997,4.61747l-4.14999,-0.75888l-1.3751,-3.75992l4.19932,-4.60675c-2.88854,-0.6835 -6.07083,0.14167 -8.15862,2.40035c-2.20184,2.38121 -2.56217,5.67872 -1.19935,8.35409l-10.97365,11.86885c-1.16765,1.26187 -1.0254,3.17574 0.31625,4.27353c1.34165,1.09702 3.37612,0.96443 4.54336,-0.29745l10.9608,-11.85714c3.01718,0.91466 6.45715,0.12264 8.66918,-2.2694l0,0z" stroke-dasharray="2,2" stroke-width="1.5" fill="#000000"/>
 </g>
</svg>