<svg width="550" height="36.18688" xmlns="http://www.w3.org/2000/svg">
 <g>
  <title>background</title>
  <rect x="-1" y="-1" width="211.52801" height="38.18688" id="canvas_background" fill="none"/>
 </g>

 <g>
  <title>Layer 1</title>
  <text fill="#000000" stroke="#000" stroke-width="0" stroke-opacity="null" fill-opacity="null" x="41.55603" y="26.2221" id="svg_116" font-size="24" font-family="sans-serif" text-anchor="start" opacity="0.5" xml:space="preserve">Experience</text>
  <path id="svg_2" d="m139.3457,80.42605c-0.00643,0 -0.00973,-0.00646 -0.00973,-0.0142c0,-0.00646 0.00165,-0.01273 0.00643,-0.01273c0.0033,0 0.00828,0.00627 0.00993,0.01273c0.0033,0.0094 0,0.0142 -0.00663,0.0142zm1.09897,0.36854c0.01471,0 0.01801,0.00166 0.00973,0.01273c-0.00478,0.00775 -0.01471,0.0142 -0.01949,0.0142c-0.00497,0 -0.00993,-0.00646 -0.00993,-0.0142c0,-0.00794 0.00663,-0.01273 0.01968,-0.01273zm-1.02688,-0.45081c-0.01471,-0.00313 -0.01636,-0.019 0,-0.0238c0.00828,-0.00148 0.01306,0.00313 0.01306,0.01273c0,0.00793 -0.00478,0.01255 -0.01306,0.01107zm-0.18334,0.50135c0.01968,-0.00461 0.01968,-0.00793 0.01306,-0.01881c-0.00496,-0.00793 -0.00661,-0.01752 -0.0033,-0.02065c0.00165,-0.0048 0.00993,0 0.01471,0.0094c0.00663,0.01273 0.01158,0.01439 0.02464,0.00646c0.0081,-0.00479 0.01471,-0.00793 0.01471,-0.00313c0,0.00313 0.00497,0 0.0114,-0.00646c0.00993,-0.0094 0.01158,-0.03006 0.00165,-0.04113c-0.00808,-0.0094 -0.0491,-0.00627 -0.0605,0.00479c-0.00661,0.00794 -0.01158,0.00628 -0.01801,-0.00792c-0.00993,-0.02362 -0.00993,-0.02693 0.01306,-0.02841c0.01968,0 0.01968,0 0.0033,-0.00959c-0.00826,-0.00461 -0.01636,-0.0142 -0.01636,-0.02047c0,-0.01587 0.02281,-0.02527 0.03274,-0.0142c0.0033,0.00461 0.00973,0.0094 0.01636,0.0094c0.01306,0 0.07539,-0.05367 0.07539,-0.06474c0,-0.0048 0.00645,-0.00793 0.01306,-0.0048c0.0081,0.00167 0.02281,-0.00313 0.03771,-0.01107c0.02114,-0.01273 0.02114,-0.0142 0.00973,-0.03486c-0.00808,-0.0142 -0.01801,-0.019 -0.041,-0.019c-0.02611,0 -0.03274,0.00314 -0.04082,0.02214c-0.00332,0.01273 -0.01325,0.02213 -0.01968,0.02213c-0.0114,0 -0.01471,-0.01419 -0.0033,-0.02213c0.00496,-0.00314 0.00826,-0.0142 0.00826,-0.02527c0,-0.01734 -0.0033,-0.02047 -0.02464,-0.01586c-0.02133,0.00313 -0.02133,0.00166 -0.01636,-0.02214c0.0033,-0.0142 0.00808,-0.02693 0.0114,-0.02841c0.0033,-0.00166 0.00661,-0.01586 0.00661,-0.03006c0,-0.02841 0.00975,-0.0332 0.02778,-0.01273c0.00826,0.01107 0.01324,0.01273 0.01636,0.00313c0.0033,-0.00627 0.01489,-0.00775 0.03292,-0.00461c0.02446,0.00627 0.02611,0.00461 0.02281,-0.0142c-0.00165,-0.01107 -0.00332,-0.0238 -0.00497,-0.02693c0,-0.00479 -0.00808,-0.01107 -0.01783,-0.01586c-0.01968,-0.00793 -0.02464,-0.02693 -0.00663,-0.02693c0.00497,0 0.00975,-0.00314 0.00975,-0.00941c0,-0.00479 0.00993,-0.00793 0.02299,-0.00646c0.01803,0.00167 0.02776,-0.00461 0.0524,-0.03781c0.01803,-0.0238 0.03109,-0.03652 0.03274,-0.03007c0.00165,0.00793 0.00993,0.01254 0.01803,0.01254c0.01306,0 0.01471,-0.00461 0.00993,-0.02526c-0.00167,-0.0142 -0.00993,-0.03154 -0.01491,-0.03948c-0.01471,-0.01753 -0.01471,-0.038 0,-0.03173c0.01158,0.00628 0.04763,-0.01106 0.04763,-0.02213c0,-0.0048 0.0048,-0.00793 0.0114,-0.00793c0.00663,0 0.00975,0.00959 0.00975,0.02214c0,0.01586 0.0033,0.02213 0.01158,0.01752c0.00643,-0.00332 0.0114,-0.01273 0.0114,-0.019c0,-0.01901 0.0524,-0.0522 0.06546,-0.04279c0.00498,0.00314 0.00993,0 0.0116,-0.01107c0.00478,-0.02214 0.03437,-0.03948 0.04743,-0.02841c0.00663,0.00461 0.01306,0.00314 0.01473,-0.00166c0.0033,-0.00628 0.01636,-0.01107 0.03107,-0.01255c0.01471,-0.00166 0.03439,-0.00793 0.04267,-0.01439c0.03107,-0.02047 0.06215,-0.019 0.07521,0.00314c0.00828,0.01586 0.01158,0.01586 0.01158,0.00479c0,-0.0142 0.00645,-0.01586 0.04579,-0.01107c0.06233,0.00628 0.07209,0.00628 0.09507,-0.00166c0.01471,-0.00461 0.01968,-0.00313 0.01968,0.00959c0,0.00794 0.00478,0.0142 0.0114,0.0142c0.00496,0 0.00973,-0.00461 0.00973,-0.00941c0,-0.01273 0.02631,-0.019 0.0493,-0.01273c0.01783,0.00628 0.01949,0.00793 0.01471,0.05054c-0.00165,0.02545 0,0.04279 0.00313,0.04279c0.0033,0 0.00663,-0.01107 0.00663,-0.02693c0,-0.02675 0.01801,-0.03781 0.02464,-0.01586c0.00165,0.00793 0.00643,0.00479 0.00973,-0.00775c0.00828,-0.03321 0.02631,-0.01587 0.02133,0.02047c-0.00496,0.03006 -0.00496,0.03006 0.00975,0.01899c0.00828,-0.00479 0.01471,-0.01734 0.01471,-0.02526c0,-0.00794 0.00498,-0.01735 0.01158,-0.02066c0.01306,-0.00627 0.02778,0.01752 0.02299,0.03486c-0.00165,0.00793 -0.00165,0.0142 0.00312,0.0142c0.00332,0 0.00663,-0.00461 0.00663,-0.00793c0,-0.00461 0.0081,-0.00627 0.01803,-0.00313c0.02132,0.00479 0.02444,0.01752 0.00643,0.02526c-0.00478,0.00332 -0.00975,0.01107 -0.00975,0.01753c0,0.01107 0.00332,0.01107 0.02133,0c0.02942,-0.019 0.04247,-0.01753 0.04745,0.00313c0.0033,0.01107 0.00975,0.01587 0.01636,0.01107c0.00663,-0.00166 0.02133,0.0048 0.03274,0.01586c0.00993,0.00941 0.02464,0.01734 0.03127,0.01734c0.00975,0 0.00975,0.00794 0.00643,0.03007c-0.0033,0.0238 -0.0033,0.02693 0.00663,0.01734c0.01306,-0.01568 0.01801,-0.01421 0.02281,0.00792c0.00165,0.01107 0.01324,0.019 0.02629,0.0238c0.01471,0.00314 0.02281,0.01107 0.02281,0.02048c0,0.00959 0.00496,0.02065 0.00993,0.02693c0.01306,0.01107 0.00973,0.04427 -0.00498,0.05534c-0.00496,0.00332 -0.0114,0.00166 -0.01306,-0.00313c-0.0033,-0.0048 -0.01471,-0.0048 -0.03604,0c-0.03439,0.01106 -0.04082,0.0142 -0.03274,0.02859c0.00497,0.0094 0.06217,0.00627 0.09342,-0.0048c0.00975,-0.00479 0.01306,0 0.01306,0.02214c0,0.01586 -0.0033,0.02841 -0.00826,0.02841c-0.00332,0 -0.00645,0.00479 -0.00645,0.01273c0,0.019 0.0081,0.01734 0.02943,-0.00479c0.01139,-0.01273 0.01801,-0.01587 0.02611,-0.00793c0.00826,0.00793 0.00993,0.00793 0.00993,-0.00479c0,-0.00776 -0.00332,-0.0142 -0.00828,-0.0142c-0.00313,0 -0.00645,-0.00628 -0.00645,-0.01255c0,-0.00793 0.0048,-0.0142 0.0114,-0.0142c0.00497,0 0.01158,0.00313 0.01158,0.00775c0,0.0048 0.00645,0.01107 0.01473,0.01273c0.01139,0.0048 0.01471,0.01107 0.01306,0.03006c-0.00332,0.03634 0.00331,0.04741 0.02776,0.04114c0.01158,-0.00314 0.01801,0 0.01306,0.00627c-0.00147,0.00313 0,0.01107 0.0033,0.01438c0.01325,0.00941 0.00828,0.03154 -0.00643,0.03154c-0.01803,0 -0.02299,0.00793 -0.01324,0.02214c0.00661,0.00793 0.01158,0.0094 0.01801,0.00313c0.01491,-0.01586 0.01803,-0.00313 0.01968,0.06014c0,0.03172 0.0033,0.05699 0.00661,0.05699c0.0081,0 0.00497,0.03486 -0.00661,0.04907c-0.00645,0.00793 -0.00645,0.01567 -0.00165,0.02213c0.01158,0.0142 0,0.05534 -0.01473,0.05534c-0.01306,0 -0.03769,0.03006 -0.03769,0.04427c0,0.01735 -0.02114,0 -0.02611,-0.019c-0.00496,-0.01734 -0.00496,-0.01734 -0.00828,-0.0048c-0.00312,0.01439 0.01473,0.05866 0.02961,0.07121c0.00975,0.00959 -0.00828,0.02545 -0.02134,0.019c-0.00663,-0.00313 -0.00975,-0.01254 -0.00975,-0.02213c0,-0.02693 -0.041,-0.09481 -0.07209,-0.12027c-0.01654,-0.01255 -0.03125,-0.02675 -0.03125,-0.03154c0,-0.00959 -0.05242,-0.03948 -0.08184,-0.04907c-0.01638,-0.0048 -0.02134,-0.00313 -0.02134,0.00959c0,0.0094 -0.00312,0.01254 -0.00975,0.0094c-0.01471,-0.00627 -0.02133,0.00794 -0.00828,0.02214c0.01803,0.01734 0.01491,0.038 -0.00478,0.03006c-0.01324,-0.00479 -0.01489,-0.00314 -0.00993,0.0238c0.00165,0.01568 0.00497,0.03634 0.00497,0.04574c0,0.00959 0.0033,0.01586 0.00661,0.01586c0.0048,0 0.00645,-0.00314 0.00313,-0.00793c-0.00165,-0.0048 0.00167,-0.00941 0.00828,-0.00941c0.00498,0 0.00975,0.00628 0.00975,0.01255c0,0.00646 -0.00645,0.01273 -0.01803,0.01107c-0.00973,0 -0.01801,-0.00461 -0.01801,-0.00775c0,-0.01439 -0.04414,-0.11234 -0.0572,-0.12672c-0.01471,-0.01568 -0.00496,-0.02047 -0.12118,0.05386c-0.01801,0.01107 -0.03769,0.03486 -0.04763,0.0522c-0.0081,0.01734 -0.02116,0.03486 -0.02776,0.038c-0.00663,0.00314 -0.03109,0.02841 -0.05242,0.05534c-0.09177,0.1186 -0.07686,0.1328 -0.07043,0.375c0.02778,0.18353 0.02778,0.18353 0.02778,0.18353c-0.06548,0 -0.06548,0 -0.06548,0c-0.05406,0 -0.05406,0 -0.05406,0c0.00496,-0.16933 0.00496,-0.16933 0.00496,-0.16933c0.0033,-0.01419 0.00497,-0.04279 0.00663,-0.05865c0.00165,-0.00941 -0.04597,-0.05055 -0.04432,-0.05995c0,-0.00793 0.04928,0.0142 0.04928,0.00627c0.0081,-0.11547 0,-0.20732 -0.02134,-0.25621c-0.00496,-0.03007 -0.04597,-0.12671 -0.0524,-0.12671c-0.00165,0 -0.01324,-0.00941 -0.02464,-0.02048c-0.01968,-0.02065 -0.02776,-0.02213 -0.13756,-0.02841c-0.11788,-0.00645 -0.11788,-0.00645 -0.11788,-0.00645c-0.02794,0.02213 -0.02794,0.02213 -0.02794,0.02213c-0.01636,0.01439 -0.03274,0.0238 -0.03752,0.0238c-0.00993,0 -0.05095,0.03321 -0.06878,0.0522c-0.00165,0 -0.0033,-0.00166 -0.0033,-0.00313c-0.00165,0 -0.00165,0 -0.00165,-0.00166c-0.00165,-0.00461 -0.00332,-0.00941 -0.00663,-0.0142c0.00993,-0.00793 0.01803,-0.01273 0.02133,-0.01107c0.00496,0.00313 0.00975,0 0.00975,-0.00794c0,-0.00793 -0.00975,-0.01107 -0.03586,-0.00793c-0.03127,0.00479 -0.03937,0.00645 -0.04432,0.02526c-0.0081,0.00959 -0.00975,0.0238 -0.00496,0.03487c-0.00167,0.0142 -0.00167,0.0238 0,0.0238c0.00165,0 0.0033,-0.00313 0.00826,-0.00646c0,0.00166 0.00165,0.00332 0.00332,0.0048c-0.01638,0.00479 -0.02466,0.019 -0.02299,0.0332c-0.00828,0.00646 -0.01638,0.00959 -0.02631,0.01438c0,0 0,-0.00166 -0.00147,-0.00166c0.00645,-0.0142 0.00975,-0.03007 0.0114,-0.05386c0.00332,-0.02675 0.00165,-0.04427 -0.0033,-0.04427c-0.0033,0 -0.00663,0.00646 -0.00663,0.01586c0.00165,0.00794 -0.00147,0.01586 -0.00808,0.01734c-0.00497,0.00166 -0.00828,-0.00148 -0.00828,-0.0094c0,-0.019 -0.00643,-0.019 -0.02116,-0.00167c-0.00661,0.00646 -0.01966,0.0142 -0.03107,0.01753c-0.01491,0.00461 -0.01968,0.00148 -0.02631,-0.01586c-0.00496,-0.0142 -0.00826,-0.03007 -0.00496,-0.03634c0.00165,-0.00793 0.00165,-0.01438 -0.00478,-0.01438c-0.01803,0 -0.00497,-0.02527 0.01636,-0.03007zm0.14087,-0.36374c-0.00993,-0.00166 -0.01803,-0.00627 -0.02133,-0.01273c-0.00165,-0.00941 -0.0033,-0.00941 -0.0033,0c0,0.00646 -0.00663,0.01107 -0.01306,0.01273c-0.01158,0 -0.01158,0.00166 0.00165,0.00794c0.00808,0.00313 0.01636,0.00792 0.01801,0.00792c0.00147,0 0.00975,-0.00479 0.01803,-0.00792c0.01471,-0.00794 0.01471,-0.00794 0,-0.00794zm1.29867,0.25474c0.00313,0.00314 0.00643,-0.00167 0.00643,-0.00959c0,-0.00628 -0.0033,-0.01255 -0.00643,-0.01255c-0.00497,0 -0.00828,0.00313 -0.00828,0.00775c0,0.0048 0.0033,0.01126 0.00828,0.01439zm-0.01158,0.0142c-0.00165,-0.0048 -0.00975,-0.01107 -0.01638,-0.01107c-0.00478,0 -0.00808,0.00627 -0.00478,0.01107c0.00147,0.00479 0.0081,0.00793 0.01471,0.00793c0.00645,0 0.0081,-0.00314 0.00645,-0.00793zm-0.01471,0.0712c0.00496,0 0.01158,-0.00166 0.01158,-0.00313c0,-0.00332 -0.00663,-0.00646 -0.01158,-0.00959c-0.00645,-0.00313 -0.0114,-0.00148 -0.0114,0.00314c0,0.0048 0.00496,0.00959 0.0114,0.00959zm0.01306,-0.15033c0.00661,-0.00314 0.00993,-0.00794 0.00826,-0.01255c-0.00496,-0.01125 -0.03272,-0.01125 -0.03272,0c0,0.01255 0.00973,0.01734 0.02446,0.01255zm-0.08994,-0.11861c-0.00828,0.0048 -0.01324,0.0142 -0.01158,0.019c0.00828,0.01254 0.01803,0.0094 0.02629,-0.01107c0.0081,-0.019 0.0048,-0.02214 -0.01471,-0.00793zm-0.03127,0.24367c0.04267,0.04261 0.04432,0.04427 0.04432,0.03006c0,-0.00793 -0.0033,-0.01438 -0.00828,-0.01438c-0.00478,0 -0.01306,-0.00794 -0.01801,-0.01734c-0.00478,-0.00941 -0.01471,-0.01901 -0.02281,-0.01901c-0.01489,0 -0.01489,0.00167 0.00478,0.02066zm-0.03437,-0.07452c0.00991,0 0.01471,-0.00313 0.00826,-0.00461c-0.00496,-0.00313 -0.01306,-0.00313 -0.01801,0c-0.00498,0.00148 0,0.00461 0.00975,0.00461zm-0.04745,-0.21507c0.00496,0.00479 0.01966,0.01106 0.03272,0.0142c0.02299,0.00479 0.02464,0.00479 0.01158,-0.00793c-0.01489,-0.01568 -0.05571,-0.02047 -0.0443,-0.00627zm-0.09987,-0.26248c-0.00496,0.00461 -0.00661,0.0142 -0.00496,0.02047c0.0033,0.01273 0.01306,0.00166 0.01306,-0.01734c0,-0.00959 -0.00165,-0.01107 -0.0081,-0.00313zm0.0491,0.34161c0.01306,0.00793 0.01803,0.00793 0.02466,-0.00314c0.01306,-0.01734 0.00478,-0.02526 -0.01968,-0.0142c-0.01968,0.00775 -0.01968,0.00775 -0.00497,0.01735zm-0.03272,-0.07913c0.02464,-0.01734 0.02464,-0.01734 0.00496,-0.01734c-0.01324,0 -0.02299,0.00627 -0.02794,0.01734c-0.00313,0.01106 -0.00645,0.01734 -0.0048,0.01734c0,0 0.01306,-0.00941 0.02778,-0.01734zm-0.03604,0.25639c0.01139,0.01734 0.03107,0.01734 0.02464,-0.00166c-0.00165,-0.00628 -0.00332,-0.0142 -0.00332,-0.01587c0,-0.00148 -0.00661,-0.00148 -0.01471,0.00167c-0.01324,0.00313 -0.01324,0.00793 -0.00661,0.01586zm-0.05077,-0.06493c0.01306,0.01734 0.01968,0.019 0.03439,0.00627c0.00975,-0.00793 0.00975,-0.00793 0,-0.0094c-0.00496,0 -0.01801,-0.00167 -0.02942,-0.0048c-0.01638,-0.00627 -0.01638,-0.00627 -0.00497,0.00793zm-0.00165,-0.17247c0.00828,0 0.01803,-0.02527 0.01306,-0.0332c-0.00643,-0.00793 -0.01967,0.00479 -0.01967,0.019c0,0.00794 0.0033,0.0142 0.00661,0.0142zm-0.08017,0.10754c-0.00993,0.00646 -0.00828,0.00794 0.00478,0.00794c0.00828,0 0.01801,-0.00314 0.02133,-0.00794c0.00496,-0.01255 -0.0114,-0.01255 -0.02611,0zm0.00165,0.13926c0.00147,0.00167 0.00643,-0.00166 0.0114,-0.0094c0.00496,-0.00646 0.01967,-0.01439 0.03107,-0.01753c0.01471,-0.00479 0.02134,-0.01254 0.02134,-0.0238c0,-0.02674 -0.02299,-0.01882 -0.04745,0.01587c-0.00993,0.01752 -0.01801,0.03172 -0.01636,0.03486zm-0.01803,-0.07286c0.01471,-0.01734 0.01471,-0.02048 0.00312,-0.02527c-0.01306,-0.00627 -0.02279,0.00794 -0.02279,0.0332c-0.00167,0.019 -0.00167,0.019 0.01967,-0.00793zm-0.02629,-0.18667c0.00165,0.01273 0.00496,0.01107 0.01471,-0.01255c0.01158,-0.02526 0.01158,-0.02859 0.00165,-0.02859c-0.00643,0 -0.01306,0.00479 -0.01471,0.01273c-0.0033,0.00627 -0.0033,0.02066 -0.00165,0.02841zm-0.0081,-0.12967c0,0.00645 0.00312,0.02213 0.00645,0.0332c0.00496,0.02214 0.00496,0.02214 0.00993,0.00313c0.00643,-0.01899 0,-0.0474 -0.00993,-0.0474c-0.0048,0 -0.00645,0.00479 -0.00645,0.01107zm-0.11474,0.05219c-0.0081,0.01107 -0.0081,0.02214 -0.00167,0.05534c0.00332,0.0238 0.0116,0.04759 0.01638,0.0522c0.00828,0.00793 0.00993,0 0.01158,-0.04906c0,-0.05995 -0.00828,-0.07895 -0.02629,-0.05848zm0.01471,0.16768c0.00165,0.00314 0.00496,-0.00313 0.0033,-0.01255c0,-0.00959 -0.00165,-0.01107 -0.00496,-0.00479c-0.00147,0.00627 -0.00147,0.0142 0.00165,0.01734zm0.05903,-0.14867c-0.00165,0.00314 -0.00165,0.02527 0.0033,0.04906c0.00497,0.04114 0.00645,0.0428 0.0081,0.01273c0.00165,-0.04907 -0.00165,-0.07286 -0.0114,-0.06179zm-0.05573,0.4462c0.00993,-0.019 0.02629,-0.05073 0.0377,-0.06973c0.01306,-0.02047 0.02133,-0.0474 0.02464,-0.07433c0.0048,-0.04261 0.0048,-0.04261 0.0048,-0.04261c-0.01968,0.02362 -0.01968,0.02362 -0.01968,0.02362c-0.00975,0.01273 -0.01636,0.02693 -0.01636,0.03172c0,0.01255 -0.03109,0.09168 -0.04084,0.10588c-0.00496,0.00792 -0.01324,0.02545 -0.01471,0.038c-0.00828,0.03633 0.00645,0.03006 0.02446,-0.01255zm-0.11623,0.16288c0.00497,0.03154 0.00497,0.03154 0.02134,-0.03634c0.00975,-0.03652 0.02446,-0.09499 0.03439,-0.13134c0.01306,-0.04593 0.01803,-0.08392 0.01803,-0.1376c0,-0.06972 -0.00167,-0.0712 -0.01473,-0.06326c-0.0296,0.02047 -0.04597,0.07747 -0.05258,0.18814c-0.00312,0.057 -0.00645,0.114 -0.00975,0.12654c-0.00165,0.01273 0,0.03652 0.0033,0.05386zm0.00332,-0.40489c0.00643,0.01568 0.01306,0.02841 0.01306,0.02841c0.00165,0 0.00973,-0.00959 0.01636,-0.02214c0.00828,-0.01106 0.02133,-0.02379 0.02629,-0.0284c0.0195,-0.01439 0.02446,-0.05866 0.0081,-0.08872c-0.01306,-0.02693 -0.0491,-0.057 -0.05573,-0.04741c-0.0033,0.00313 -0.00808,0.03321 -0.0114,0.06806c-0.00661,0.0522 -0.00661,0.06807 0.00332,0.0902zm-0.00993,-0.36227c0.0033,0.00314 0.00661,0.00148 0.00661,-0.00331c0,-0.00628 -0.0033,-0.01255 -0.00661,-0.01568c-0.00497,-0.00332 -0.0081,-0.00166 -0.0081,0.00461c0,0.00479 0.00313,0.01107 0.0081,0.01438zm-0.53055,0.42536c0.02281,0.00167 0.02281,0.00167 0.02281,0.00167c0.02299,0 0.04597,-0.02048 0.04597,-0.038c0,-0.01107 -0.00165,-0.01107 -0.06878,0.03633zm0.00975,-0.04427c0,0.0048 0.0033,0.00959 0.00828,0.00959c0.00808,0 0.03107,-0.02841 0.02611,-0.0332c-0.00497,-0.00646 -0.03439,0.0142 -0.03439,0.02361zm0.01803,-0.10901c0.02464,0.03155 0.03604,0.03468 0.0491,0.0142c0.01324,-0.01899 0.00165,-0.03172 -0.03771,-0.03633c-0.03272,-0.0048 -0.03272,-0.0048 -0.01139,0.02213zm-0.01803,-0.08872c0,0.00331 0.01158,0.01106 0.02464,0.01752c0.0605,0.03007 0.07209,0.03007 0.07043,0.00148c0,-0.01734 -0.02464,-0.05534 -0.03439,-0.05534c-0.01158,0 -0.06068,0.03006 -0.06068,0.03634zm0.08846,0.22466c0.01801,0 0.01966,-0.00479 0.00496,-0.01254c-0.00663,-0.00167 -0.01306,0 -0.01471,0.00461c-0.00332,0.00479 0.00165,0.00793 0.00975,0.00793zm0.01306,-0.37168c-0.0114,-0.00794 -0.02613,-0.01107 -0.03274,-0.00794c-0.0114,0.00628 -0.00975,0.00794 0.00661,0.01273c0.0081,0.00314 0.02466,0.00628 0.03274,0.00776c0.00975,0 0.00975,-0.00314 -0.00661,-0.01255zm-0.00147,0.05699c0.00973,0 0.0114,-0.00166 0.00478,-0.00645c-0.00478,-0.00148 -0.0114,-0.00148 -0.01471,0.00166c-0.00165,0.00313 0.0033,0.00627 0.00993,0.00479zm0.00973,0.03634c-0.02299,0 -0.02299,0.00148 -0.00973,0.0142c0.01636,0.0142 0.02114,0.01586 0.02776,0.00627c0.0114,-0.01254 0.0033,-0.02047 -0.01803,-0.02047zm0.03274,-0.17874c-0.00663,-0.00793 -0.00828,0.00627 -0.00496,0.02361c0.00165,0.01107 0.00826,0.02066 0.01158,0.02066c0.00643,0 0.00165,-0.03486 -0.00663,-0.04427zm0.0524,0.2088c-0.0033,0.00148 0.00497,0.01107 0.01473,0.01901c0.00993,0.00793 0.01801,0.01106 0.01801,0.00627c0,-0.01107 -0.02776,-0.03173 -0.03274,-0.02527zm-0.041,0.01107c-0.01471,0.01107 -0.00643,0.03948 0.01489,0.04427c0.0114,0.00313 0.02943,0.01586 0.04084,0.02841c0.00993,0.01273 0.01801,0.01753 0.01801,0.01273c0,-0.01586 -0.06546,-0.09186 -0.07374,-0.0854zm0.06713,0.13134c-0.00975,-0.02546 -0.02116,-0.038 -0.04249,-0.04594c-0.01636,-0.00627 -0.03274,-0.00959 -0.03769,-0.00793c-0.00497,0.00166 0.01471,0.02213 0.04267,0.04592c0.0524,0.04113 0.0524,0.04113 0.03752,0.00794zm0.08697,-0.24367c-0.0033,0 -0.00663,0.00627 -0.00663,0.01254c0,0.00793 0.00332,0.01273 0.00663,0.01273c0.00478,0 0.0081,-0.00479 0.0081,-0.01273c0,-0.00627 -0.00332,-0.01254 -0.0081,-0.01254zm-0.01489,0.12967c0,0.01107 0.02794,0.00313 0.03935,-0.01107c0.01636,-0.0238 0.01471,-0.03006 -0.00663,-0.03006c-0.01471,0 -0.03272,0.02214 -0.03272,0.04113zm0.04763,-0.34161c-0.00497,0.02047 -0.00828,0.03781 -0.00663,0.03948c0.00497,0.00627 0.01803,-0.04113 0.01803,-0.06014c0,-0.00793 -0.00498,0.00167 -0.0114,0.02066zm0.08514,0.31948c-0.00828,0 -0.01471,0.00314 -0.01471,0.00941c0,0.00479 0.00478,0.00794 0.00973,0.00794c0.00663,0 0.01306,-0.00314 0.01473,-0.00794c0.0033,-0.00627 -0.00167,-0.00941 -0.00975,-0.00941zm-0.01968,0.29735c0.00975,0.0286 0.02446,0.05534 0.03274,0.06179c0.00828,0.00479 0.02464,0.02693 0.03439,0.04907c0.00975,0.02213 0.01968,0.03947 0.02134,0.03947c0.00808,0 -0.00828,-0.14553 -0.01968,-0.18981c-0.00993,-0.03799 -0.01306,-0.07286 -0.0114,-0.12819c0.00147,-0.04113 0,-0.07748 -0.0033,-0.08061c-0.00165,-0.00313 -0.01306,-0.00313 -0.02299,0c-0.01803,0.00627 -0.01968,0.01107 -0.01968,0.04593c0,0.02674 -0.00331,0.04113 -0.0114,0.0474c-0.02299,0.0142 -0.02133,0.09481 0,0.15494zm-0.04745,-0.21193c-0.0033,-0.0238 -0.00661,-0.02693 -0.02464,-0.02693c-0.02134,0 -0.02134,0.00166 -0.01968,0.03486c0,0.02048 0.00332,0.04428 0.00497,0.05534c0.00165,0.01107 0.0081,0.02214 0.01471,0.0238c0.01306,0.00794 0.02776,-0.0474 0.02464,-0.08706zm-0.02464,0.15973c-0.01471,-0.019 -0.02464,-0.03947 -0.02611,-0.04427c0,-0.00627 -0.00828,-0.02213 -0.01801,-0.03633c-0.00993,-0.0142 -0.02133,-0.03173 -0.02631,-0.038c-0.01636,-0.02214 -0.01306,-0.00313 0.00497,0.04593c0.0114,0.03321 0.03107,0.06327 0.05406,0.08854c0.04249,0.04279 0.04745,0.03486 0.0114,-0.01587zm-0.02611,0.07766c0.01783,0 0.01636,-0.00166 -0.00828,-0.02693c-0.01636,-0.01586 -0.02776,-0.0332 -0.02776,-0.04113c0,-0.00627 -0.02134,-0.02859 -0.04597,-0.04906c-0.02446,-0.02066 -0.04745,-0.04113 -0.05075,-0.04741c-0.00332,-0.00793 -0.00497,-0.00793 -0.00497,0.00148c0,0.00959 -0.00808,0.01107 -0.03439,0.00627c-0.01801,-0.00314 -0.03272,-0.00314 -0.03272,-0.00147c0,0.00313 0.00661,0.02213 0.01324,0.04113c0.0114,0.03154 0.01636,0.038 0.0524,0.05054c0.02281,0.00793 0.05885,0.02693 0.08184,0.04113c0.02134,0.01439 0.04745,0.02545 0.05738,0.02545zm-0.25562,0.05368c0.00663,0 0.01638,-0.00313 0.02299,-0.00793c0.0114,-0.01106 0.00167,-0.01106 -0.01966,0c-0.00975,0.0048 -0.0114,0.00628 -0.00332,0.00793zm-0.01801,-0.03948c0.01636,-0.00645 0.06878,-0.01273 0.11641,-0.01273c0.08992,-0.00148 0.10795,-0.00627 0.07191,-0.01586c-0.0114,-0.00313 -0.03752,-0.01107 -0.05885,-0.019c-0.0377,-0.0142 -0.11476,-0.00941 -0.12284,0.00645c-0.00167,0.00314 -0.00993,0.0048 -0.01803,0.00314c-0.01636,-0.0048 -0.03274,0.00793 -0.0377,0.0332c-0.00663,0.02047 0.00496,0.02214 0.0491,0.00479zm-0.13094,0.03634c0.0033,0.01273 0.01968,0.0142 0.03274,0.00313c0.00808,-0.00627 0.00808,-0.0094 0,-0.01899c-0.00663,-0.00941 -0.0114,-0.00941 -0.02133,-0.00148c-0.00663,0.00461 -0.0114,0.01254 -0.0114,0.01734zm-0.0524,0.11067c0.00643,0 0.00973,0.00479 0.00643,0.0142c-0.00147,0.00646 -0.00643,0.01273 -0.00975,0.01273c-0.00496,0 -0.00808,-0.00627 -0.00808,-0.01273c0,-0.00775 0.00478,-0.0142 0.0114,-0.0142z" stroke-dasharray="2,2" stroke-width="1.5" stroke="null" fill="#56aaff"/>
  <rect id="svg_5" height="5.2459" width="135.08197" y="119.24098" x="108.93443" stroke-dasharray="2,2" stroke-width="1.5" stroke="null" fill="#56aaff"/>
  <rect id="svg_6" height="9.99999" width="129.69683" y="64.30551" x="133.78744" stroke-dasharray="2,2" stroke-width="1.5" stroke="null" fill="#56aaff"/>
  <line id="svg_11" y2="44.27988" x2="28.38983" y1="44.27988" x1="28.55932" stroke-dasharray="2,2" stroke-width="1.5" fill="none"/>
  <path id="svg_29" d="m13.47682,29.81529c0.5298,0 4.23841,-4.50331 4.13907,-4.51728c0.09934,0.01397 0.23179,-9.65491 0.13245,-9.66887c0.09934,0.01397 -4.80132,-6.87345 -4.90066,-6.88742c0.09934,0.01397 5.66225,4.11993 5.56291,4.10596c0.09934,0.01397 0.23179,-8.46285 0.13245,-8.47682c0.09934,0.01397 1.02649,8.62324 0.92715,8.60927c0.09934,0.01397 8.44371,-3.56219 8.34437,-3.57616c0.09934,0.01397 -7.84768,6.50404 -7.71523,6.50404c0.13245,0 0,9.27152 -0.09934,9.25755c0.09934,0.01397 3.27815,5.31198 3.17881,5.29801c0.09934,0.01397 -2.81457,-1.84034 -2.68212,-1.84034c0.13245,0 -1.3245,0 -1.42384,-0.01397c0.09934,0.01397 -1.35762,2.26562 -1.45695,2.25166c0.09934,0.01397 0.23179,-2.37014 0.13245,-2.38411" opacity="NaN" stroke-dasharray="2,2" stroke-width="1.5" stroke="null" fill="#56aaff"/>
  <path id="svg_30" d="m19.96689,13.92125" opacity="NaN" stroke-dasharray="2,2" stroke-width="1.5" stroke="null" fill="#56aaff"/>
  <path id="svg_31" d="m21.95364,12.1994l0.96026,-3.32523l-0.13245,3.17881l-0.82781,0.14642z" opacity="NaN" stroke-dasharray="2,2" stroke-width="1.5" stroke="null" fill="#56aaff"/>
  <path id="svg_32" d="m14.93377,11.53715l-2.61589,0.64828l4.10596,0.5298" opacity="NaN" stroke-dasharray="2,2" stroke-width="1.5" stroke="null" fill="#56aaff"/>
  <path id="svg_34" d="m18.77483,10.74245" opacity="NaN" stroke-dasharray="2,2" stroke-width="1.5" stroke="null" fill="#56aaff"/>
 </g>
</svg>