<svg width="1200" height="1800" xmlns="http://www.w3.org/2000/svg">
 <g>
  <title>Layer 1</title>
  <rect transform="rotate(58.5174 886.667 1412.21)" fill="#007fff" x="878.88856" y="553.32674" width="15.55555" height="1717.77519" id="svg_29" stroke="#000"/>
  <rect transform="rotate(58.5174 775.553 1421.1)" fill="#007fff" x="767.77573" y="562.21698" width="15.55555" height="1717.77519" id="svg_28" stroke="#000"/>
  <rect transform="rotate(58.5174 728.886 1394.43)" fill="#007fff" x="721.10838" y="535.55114" width="15.55555" height="1717.77519" id="svg_27" stroke="#000"/>
  <rect fill="#007fff" x="1110.00037" y="897.7754" width="15.55555" height="1717.77519" id="svg_26" stroke="#000"/>
  <rect fill="#007fff" x="1143.33366" y="720.00345" width="15.55555" height="1717.77519" id="svg_25" stroke="#000"/>
  <rect stroke="#000" fill="#007fff" x="1172.22246" y="-151.1168" width="15.55555" height="1966.66873" id="svg_24"/>
  <path fill="#00bf00" stroke="#000" opacity="NaN" d="m681.11108,1468.8809" id="svg_5"/>
  <path stroke="#000" fill="#007fff" d="m865.78842,1492.80635l23.80866,-51.10941l63.48976,0l23.80866,51.10941l-23.80866,51.10941l-63.48976,0l-23.80866,-51.10941z" id="svg_14"/>
  <path fill="#007fff" stroke="#000" d="m1851.80871,1035.54708l0.31929,-0.63857l0.85143,0l0.31929,0.63857l-0.31929,0.63857l-0.85143,0l-0.31929,-0.63857z" id="svg_15"/>
  <path stroke="#000" fill="#007fff" d="m961.34572,1435.02752l23.80866,-51.10941l63.48976,0l23.80866,51.10941l-23.80866,51.10941l-63.48976,0l-23.80866,-51.10941z" id="svg_1"/>
  <path stroke="#000" fill="#007fff" d="m961.34573,1546.14065l23.80866,-51.10941l63.48976,0l23.80866,51.10941l-23.80866,51.10941l-63.48976,0l-23.80866,-51.10941z" id="svg_2"/>
  <path stroke="#000" fill="#007fff" d="m865.78843,1377.24869l23.80866,-51.10941l63.48976,0l23.80866,51.10941l-23.80866,51.10941l-63.48976,0l-23.80866,-51.10941z" id="svg_3"/>
  <path stroke="#000" fill="#007fff" d="m963.56799,1321.69212l23.80866,-51.10941l63.48976,0l23.80866,51.10941l-23.80866,51.10941l-63.48976,0l-23.80866,-51.10941z" id="svg_4"/>
  <path stroke="#000" fill="#007fff" d="m1063.56981,1492.80635l23.80866,-51.10941l63.48976,0l23.80866,51.10941l-23.80866,51.10941l-63.48976,0l-23.80866,-51.10941z" id="svg_6"/>
 </g>

</svg>